<!DOCTYPE svg PUBLIC "-//W3C//DTD SVG 1.1//EN" "http://www.w3.org/Graphics/SVG/1.1/DTD/svg11.dtd">
<!-- Uploaded to: SVG Repo, www.svgrepo.com, Transformed by: SVG Repo Mixer Tools -->
<svg height="256px" width="256px" version="1.1" id="Layer_1" xmlns="http://www.w3.org/2000/svg" xmlns:xlink="http://www.w3.org/1999/xlink" viewBox="0 0 503.61 503.61" xml:space="preserve" fill="#737373">
<g id="SVGRepo_bgCarrier" stroke-width="0"/>
<g id="SVGRepo_tracerCarrier" stroke-linecap="round" stroke-linejoin="round"/>
<g id="SVGRepo_iconCarrier"> <g transform="translate(1 1)"> <path style="fill:#FFFFFF00;" d="M469.033,494.213H32.574c-14.269,0-25.18-10.911-25.18-25.18V32.574 c0-14.269,10.911-25.18,25.18-25.18h436.459c14.269,0,25.18,10.911,25.18,25.18v436.459 C494.213,483.302,483.302,494.213,469.033,494.213"/> <path style="fill:#75B5E7;" d="M176.102,250.803h150.243V99.721H176.102V250.803z"/> <path style="fill:#FFDD78;" d="M175.262,401.885h151.082V250.803H175.262V401.885z"/> <path style="fill:#b9b9b9;" d="M301.164,250.803h25.18V99.721h-25.18V250.803z"/> <g> <path style="fill:#FFFFFF00;" d="M301.164,401.885h25.18V250.803h-25.18V401.885z"/> <path style="fill:#FFFFFF00;" d="M469.033,494.213L469.033,494.213V7.393c14.269,0,25.18,10.911,25.18,25.18v436.459 C494.213,483.302,483.302,494.213,469.033,494.213"/> </g> <path style="fill:#FFFFFF00;" d="M32.574,494.213L32.574,494.213V7.393c-13.43,0-25.18,10.911-25.18,25.18v436.459 C7.393,483.302,19.144,494.213,32.574,494.213"/> <path d="M469.033,502.607H32.574C14.108,502.607-1,487.498-1,469.033V32.574C-1,14.108,14.108-1,32.574-1h436.459 c18.466,0,33.574,15.108,33.574,33.574v436.459C502.607,487.498,487.498,502.607,469.033,502.607z M32.574,15.787 c-9.233,0-16.787,7.554-16.787,16.787v436.459c0,9.233,7.554,16.787,16.787,16.787h436.459c9.233,0,16.787-7.554,16.787-16.787 V32.574c0-9.233-7.554-16.787-16.787-16.787H32.574z"/> <path d="M326.344,259.197H175.262c-5.036,0-8.393-3.357-8.393-8.393V99.721c0-5.036,3.357-8.393,8.393-8.393h151.082 c5.036,0,8.393,3.357,8.393,8.393v151.082C334.738,255.839,331.38,259.197,326.344,259.197z M183.656,242.41h134.295V108.115 H183.656V242.41z"/> <path d="M66.148,49.361c0-9.233-7.554-16.787-16.787-16.787s-16.787,7.554-16.787,16.787s7.554,16.787,16.787,16.787 S66.148,58.593,66.148,49.361"/> <path d="M66.148,452.246c0-9.233-7.554-16.787-16.787-16.787s-16.787,7.554-16.787,16.787c0,9.233,7.554,16.787,16.787,16.787 S66.148,461.479,66.148,452.246"/> <path d="M469.033,49.361c0-9.233-7.554-16.787-16.787-16.787c-9.233,0-16.787,7.554-16.787,16.787s7.554,16.787,16.787,16.787 C461.479,66.148,469.033,58.593,469.033,49.361"/> <path d="M469.033,452.246c0-9.233-7.554-16.787-16.787-16.787c-9.233,0-16.787,7.554-16.787,16.787 c0,9.233,7.554,16.787,16.787,16.787C461.479,469.033,469.033,461.479,469.033,452.246"/> <path d="M326.344,410.279H176.102c-5.036,0-8.393-3.357-8.393-8.393V250.803c0-5.036,3.357-8.393,8.393-8.393h150.243 c5.036,0,8.393,3.357,8.393,8.393v151.082C334.738,406.921,331.38,410.279,326.344,410.279z M184.495,393.492h133.456V259.197 H184.495V393.492z"/> <path d="M250.803,359.918c-5.036,0-8.393-3.357-8.393-8.393v-50.361c0-5.036,3.357-8.393,8.393-8.393s8.393,3.357,8.393,8.393 v50.361C259.197,356.561,255.839,359.918,250.803,359.918z"/> </g> </g>
</svg>